<?xml version="1.0" encoding="UTF-8"?>
<svg xmlns="http://www.w3.org/2000/svg" width="1000" height="800" viewBox="0 0 1000 800" font-family="'Segoe UI', Arial, sans-serif">
  <defs>
    <filter id="shadow" x="-10%" y="-10%" width="140%" height="150%">
      <feDropShadow dx="4" dy="5" stdDeviation="5" flood-color="#000" flood-opacity="0.20"/>
    </filter>
    <filter id="shadow-sm" x="-5%" y="-5%" width="120%" height="130%">
      <feDropShadow dx="2" dy="3" stdDeviation="3" flood-color="#000" flood-opacity="0.18"/>
    </filter>
    <marker id="arr" markerWidth="9" markerHeight="7" refX="8" refY="3.5" orient="auto">
      <polygon points="0 0, 9 3.5, 0 7" fill="#555"/>
    </marker>
    <marker id="arr-dk" markerWidth="9" markerHeight="7" refX="8" refY="3.5" orient="auto">
      <polygon points="0 0, 9 3.5, 0 7" fill="#888"/>
    </marker>
    <!-- Background dot grid -->
    <pattern id="grid" x="0" y="0" width="40" height="40" patternUnits="userSpaceOnUse">
      <circle cx="20" cy="20" r="1.8" fill="#D8D4CC" opacity="0.7"/>
    </pattern>
  </defs>

  <!-- ===== BACKGROUND ===== -->
  <rect width="1000" height="800" fill="#F8F6F0"/>
  <rect width="1000" height="800" fill="url(#grid)"/>

  <!-- ===== TITLE ===== -->
  <text x="500" y="35" font-size="26" font-weight="900" text-anchor="middle" fill="#1A252F" letter-spacing="0.5">Geo-Agent Architecture</text>
  <text x="500" y="56" font-size="13" text-anchor="middle" fill="#95A5A6" font-style="italic">Modular components that snap together — like LEGO® bricks</text>

  <!-- ================================================================
       BROWSER BRICK  (x=325, y=70, w=350, h=60)  gray
       Studs cy=60, color darker gray
       ================================================================ -->
  <!-- Studs -->
  <circle cx="365" cy="60" r="9" fill="#7F8C8D" stroke="#6C7A7D" stroke-width="2"/>
  <circle cx="405" cy="60" r="9" fill="#7F8C8D" stroke="#6C7A7D" stroke-width="2"/>
  <circle cx="445" cy="60" r="9" fill="#7F8C8D" stroke="#6C7A7D" stroke-width="2"/>
  <circle cx="485" cy="60" r="9" fill="#7F8C8D" stroke="#6C7A7D" stroke-width="2"/>
  <circle cx="525" cy="60" r="9" fill="#7F8C8D" stroke="#6C7A7D" stroke-width="2"/>
  <circle cx="565" cy="60" r="9" fill="#7F8C8D" stroke="#6C7A7D" stroke-width="2"/>
  <circle cx="605" cy="60" r="9" fill="#7F8C8D" stroke="#6C7A7D" stroke-width="2"/>
  <circle cx="645" cy="60" r="9" fill="#7F8C8D" stroke="#6C7A7D" stroke-width="2"/>
  <!-- Brick body -->
  <rect x="325" y="68" width="350" height="62" rx="8" fill="#95A5A6" filter="url(#shadow)"/>
  <!-- Top sheen -->
  <rect x="327" y="68" width="346" height="14" rx="6" fill="#BDC3C7" opacity="0.45"/>
  <!-- Label -->
  <text x="500" y="96" font-size="14" font-weight="700" text-anchor="middle" fill="white">Browser / User</text>
  <text x="500" y="115" font-size="11" text-anchor="middle" fill="#ECF0F1">Natural language queries · Interactive map exploration</text>

  <!-- Arrow: Browser → JS Client -->
  <line x1="500" y1="130" x2="500" y2="148" stroke="#555" stroke-width="2.5" marker-end="url(#arr)"/>

  <!-- ================================================================
       JS CLIENT BRICK  (x=20, y=155, w=590, h=165)  amber/orange
       Studs cy=145
       ================================================================ -->
  <!-- Studs -->
  <circle cx="55"  cy="145" r="9" fill="#D4890A" stroke="#B8760A" stroke-width="2"/>
  <circle cx="95"  cy="145" r="9" fill="#D4890A" stroke="#B8760A" stroke-width="2"/>
  <circle cx="135" cy="145" r="9" fill="#D4890A" stroke="#B8760A" stroke-width="2"/>
  <circle cx="175" cy="145" r="9" fill="#D4890A" stroke="#B8760A" stroke-width="2"/>
  <circle cx="215" cy="145" r="9" fill="#D4890A" stroke="#B8760A" stroke-width="2"/>
  <circle cx="255" cy="145" r="9" fill="#D4890A" stroke="#B8760A" stroke-width="2"/>
  <circle cx="295" cy="145" r="9" fill="#D4890A" stroke="#B8760A" stroke-width="2"/>
  <circle cx="335" cy="145" r="9" fill="#D4890A" stroke="#B8760A" stroke-width="2"/>
  <circle cx="375" cy="145" r="9" fill="#D4890A" stroke="#B8760A" stroke-width="2"/>
  <circle cx="415" cy="145" r="9" fill="#D4890A" stroke="#B8760A" stroke-width="2"/>
  <circle cx="455" cy="145" r="9" fill="#D4890A" stroke="#B8760A" stroke-width="2"/>
  <circle cx="495" cy="145" r="9" fill="#D4890A" stroke="#B8760A" stroke-width="2"/>
  <circle cx="535" cy="145" r="9" fill="#D4890A" stroke="#B8760A" stroke-width="2"/>
  <circle cx="575" cy="145" r="9" fill="#D4890A" stroke="#B8760A" stroke-width="2"/>
  <!-- Brick body -->
  <rect x="20" y="155" width="590" height="165" rx="8" fill="#F5A623" filter="url(#shadow)"/>
  <!-- Top sheen -->
  <rect x="22" y="155" width="586" height="15" rx="6" fill="#FFD070" opacity="0.50"/>
  <!-- Title -->
  <text x="315" y="188" font-size="15" font-weight="900" text-anchor="middle" fill="#5D3A00">geo-agent JS Client</text>
  <text x="315" y="206" font-size="10.5" text-anchor="middle" fill="#7A4F00">main.js · agent.js · tool-registry.js · mcp-client.js · dataset-catalog.js</text>

  <!-- Sub-brick: MapLibre GL JS -->
  <rect x="35" y="215" width="173" height="90" rx="6" fill="#E8920F" filter="url(#shadow-sm)"/>
  <rect x="37" y="215" width="169" height="10" rx="4" fill="#F5B942" opacity="0.5"/>
  <text x="121" y="243" font-size="12" font-weight="700" text-anchor="middle" fill="white">MapLibre GL JS</text>
  <text x="121" y="261" font-size="10" text-anchor="middle" fill="#FFF3E0">PMTiles vectors</text>
  <text x="121" y="278" font-size="10" text-anchor="middle" fill="#FFF3E0">COG rasters via TiTiler</text>
  <text x="121" y="295" font-size="9" text-anchor="middle" fill="#FFE0A0">map-manager.js</text>

  <!-- Sub-brick: Chat UI -->
  <rect x="223" y="215" width="173" height="90" rx="6" fill="#E8920F" filter="url(#shadow-sm)"/>
  <rect x="225" y="215" width="169" height="10" rx="4" fill="#F5B942" opacity="0.5"/>
  <text x="309" y="243" font-size="12" font-weight="700" text-anchor="middle" fill="white">Chat UI</text>
  <text x="309" y="261" font-size="10" text-anchor="middle" fill="#FFF3E0">Collapsible tool calls</text>
  <text x="309" y="278" font-size="10" text-anchor="middle" fill="#FFF3E0">Markdown rendering</text>
  <text x="309" y="295" font-size="9" text-anchor="middle" fill="#FFE0A0">chat-ui.js · chat.css</text>

  <!-- Sub-brick: Agent + Tools -->
  <rect x="411" y="215" width="185" height="90" rx="6" fill="#E8920F" filter="url(#shadow-sm)"/>
  <rect x="413" y="215" width="181" height="10" rx="4" fill="#F5B942" opacity="0.5"/>
  <text x="503" y="243" font-size="12" font-weight="700" text-anchor="middle" fill="white">Agent + Tools</text>
  <text x="503" y="261" font-size="10" text-anchor="middle" fill="#FFF3E0">LLM orchestration loop</text>
  <text x="503" y="278" font-size="10" text-anchor="middle" fill="#FFF3E0">9 local map tools</text>
  <text x="503" y="295" font-size="9" text-anchor="middle" fill="#FFE0A0">agent.js · map-tools.js</text>

  <!-- ================================================================
       LLM MODELS BRICK  (x=650, y=155, w=330, h=165)  blue
       Studs cy=145
       ================================================================ -->
  <!-- Studs -->
  <circle cx="680" cy="145" r="9" fill="#2471A3" stroke="#1A5276" stroke-width="2"/>
  <circle cx="720" cy="145" r="9" fill="#2471A3" stroke="#1A5276" stroke-width="2"/>
  <circle cx="760" cy="145" r="9" fill="#2471A3" stroke="#1A5276" stroke-width="2"/>
  <circle cx="800" cy="145" r="9" fill="#2471A3" stroke="#1A5276" stroke-width="2"/>
  <circle cx="840" cy="145" r="9" fill="#2471A3" stroke="#1A5276" stroke-width="2"/>
  <circle cx="880" cy="145" r="9" fill="#2471A3" stroke="#1A5276" stroke-width="2"/>
  <circle cx="920" cy="145" r="9" fill="#2471A3" stroke="#1A5276" stroke-width="2"/>
  <circle cx="960" cy="145" r="9" fill="#2471A3" stroke="#1A5276" stroke-width="2"/>
  <!-- Brick body -->
  <rect x="650" y="155" width="330" height="165" rx="8" fill="#2980B9" filter="url(#shadow)"/>
  <!-- Top sheen -->
  <rect x="652" y="155" width="326" height="15" rx="6" fill="#5DADE2" opacity="0.45"/>
  <!-- Title -->
  <text x="815" y="189" font-size="15" font-weight="900" text-anchor="middle" fill="white">LLM Models</text>
  <text x="815" y="207" font-size="10.5" text-anchor="middle" fill="#D6EAF8">OpenAI-compatible API · swappable via proxy</text>

  <!-- Sub-brick: Reasoning -->
  <rect x="665" y="217" width="145" height="90" rx="6" fill="#2471A3" filter="url(#shadow-sm)"/>
  <rect x="667" y="217" width="141" height="10" rx="4" fill="#5DADE2" opacity="0.45"/>
  <text x="737" y="245" font-size="11" font-weight="700" text-anchor="middle" fill="white">Claude / GPT-4</text>
  <text x="737" y="263" font-size="10" text-anchor="middle" fill="#D6EAF8">Complex reasoning</text>
  <text x="737" y="280" font-size="10" text-anchor="middle" fill="#D6EAF8">Multi-step tool use</text>
  <text x="737" y="297" font-size="9" text-anchor="middle" fill="#AED6F1">high capability</text>

  <!-- Sub-brick: Fast -->
  <rect x="825" y="217" width="145" height="90" rx="6" fill="#2471A3" filter="url(#shadow-sm)"/>
  <rect x="827" y="217" width="141" height="10" rx="4" fill="#5DADE2" opacity="0.45"/>
  <text x="897" y="245" font-size="11" font-weight="700" text-anchor="middle" fill="white">Haiku / Gemini</text>
  <text x="897" y="263" font-size="10" text-anchor="middle" fill="#D6EAF8">Fast responses</text>
  <text x="897" y="280" font-size="10" text-anchor="middle" fill="#D6EAF8">Cost-efficient</text>
  <text x="897" y="297" font-size="9" text-anchor="middle" fill="#AED6F1">low latency</text>

  <!-- ================================================================
       ARROWS between JS Client and LLM (horizontal bidirectional)
       ================================================================ -->
  <!-- → chat completions request -->
  <line x1="612" y1="232" x2="648" y2="232" stroke="#444" stroke-width="2" marker-end="url(#arr)"/>
  <!-- ← tool results / completion -->
  <line x1="648" y1="247" x2="612" y2="247" stroke="#777" stroke-width="1.8" stroke-dasharray="5,3" marker-end="url(#arr-dk)"/>
  <text x="630" y="224" font-size="9" text-anchor="middle" fill="#444" font-weight="600">API calls</text>
  <text x="630" y="262" font-size="9" text-anchor="middle" fill="#777">responses</text>

  <!-- ================================================================
       STAC CATALOG BRICK  (x=20, y=385, w=270, h=110)  purple
       Studs cy=375
       ================================================================ -->
  <!-- Studs -->
  <circle cx="55"  cy="375" r="9" fill="#7D3C98" stroke="#6C3483" stroke-width="2"/>
  <circle cx="95"  cy="375" r="9" fill="#7D3C98" stroke="#6C3483" stroke-width="2"/>
  <circle cx="135" cy="375" r="9" fill="#7D3C98" stroke="#6C3483" stroke-width="2"/>
  <circle cx="175" cy="375" r="9" fill="#7D3C98" stroke="#6C3483" stroke-width="2"/>
  <circle cx="215" cy="375" r="9" fill="#7D3C98" stroke="#6C3483" stroke-width="2"/>
  <circle cx="255" cy="375" r="9" fill="#7D3C98" stroke="#6C3483" stroke-width="2"/>
  <!-- Brick body -->
  <rect x="20" y="383" width="270" height="110" rx="8" fill="#9B59B6" filter="url(#shadow)"/>
  <rect x="22" y="383" width="266" height="14" rx="6" fill="#C39BD3" opacity="0.45"/>
  <text x="155" y="415" font-size="14" font-weight="900" text-anchor="middle" fill="white">STAC Catalog</text>
  <text x="155" y="433" font-size="10.5" text-anchor="middle" fill="#E8DAEF">Collections · Items · Assets</text>
  <text x="155" y="451" font-size="10" text-anchor="middle" fill="#E8DAEF">Links to GeoParquet, PMTiles, COG</text>
  <text x="155" y="469" font-size="9.5" text-anchor="middle" fill="#D7BDE2">dataset-catalog.js</text>
  <text x="155" y="485" font-size="9" text-anchor="middle" fill="#D7BDE2">layers-input.json → collection IDs</text>

  <!-- ================================================================
       MCP CLIENT BRICK  (x=320, y=385, w=290, h=110)  green
       Studs cy=375
       ================================================================ -->
  <!-- Studs -->
  <circle cx="350" cy="375" r="9" fill="#1D8A4E" stroke="#196F3D" stroke-width="2"/>
  <circle cx="390" cy="375" r="9" fill="#1D8A4E" stroke="#196F3D" stroke-width="2"/>
  <circle cx="430" cy="375" r="9" fill="#1D8A4E" stroke="#196F3D" stroke-width="2"/>
  <circle cx="470" cy="375" r="9" fill="#1D8A4E" stroke="#196F3D" stroke-width="2"/>
  <circle cx="510" cy="375" r="9" fill="#1D8A4E" stroke="#196F3D" stroke-width="2"/>
  <circle cx="550" cy="375" r="9" fill="#1D8A4E" stroke="#196F3D" stroke-width="2"/>
  <circle cx="590" cy="375" r="9" fill="#1D8A4E" stroke="#196F3D" stroke-width="2"/>
  <!-- Brick body -->
  <rect x="320" y="383" width="290" height="110" rx="8" fill="#27AE60" filter="url(#shadow)"/>
  <rect x="322" y="383" width="286" height="14" rx="6" fill="#58D68D" opacity="0.45"/>
  <text x="465" y="415" font-size="14" font-weight="900" text-anchor="middle" fill="white">MCP Client</text>
  <text x="465" y="433" font-size="10.5" text-anchor="middle" fill="#D5F5E3">Model Context Protocol transport</text>
  <text x="465" y="451" font-size="10" text-anchor="middle" fill="#D5F5E3">lazy connect · auto-reconnect</text>
  <text x="465" y="469" font-size="9.5" text-anchor="middle" fill="#A9DFBF">tool-registry.js · mcp-client.js</text>
  <text x="465" y="485" font-size="9" text-anchor="middle" fill="#A9DFBF">dispatches SQL queries to MCP server</text>

  <!-- ================================================================
       ARROWS: JS Client → STAC and JS Client → MCP Client
       ================================================================ -->
  <!-- JS Client bottom → STAC top (dataset discovery, dashed) -->
  <line x1="155" y1="320" x2="155" y2="373" stroke="#888" stroke-width="1.8" stroke-dasharray="5,3" marker-end="url(#arr-dk)"/>
  <text x="93" y="350" font-size="9" fill="#888" font-weight="600">dataset</text>
  <text x="93" y="362" font-size="9" fill="#888" font-weight="600">discovery</text>

  <!-- JS Client bottom → MCP Client top (tool dispatch) -->
  <line x1="465" y1="320" x2="465" y2="373" stroke="#444" stroke-width="2" marker-end="url(#arr)"/>
  <text x="510" y="352" font-size="9" fill="#444" font-weight="600">tool dispatch</text>

  <!-- ================================================================
       MCP SERVER + DUCKDB BRICK  (x=360, y=545, w=450, h=120)  red
       Studs cy=535
       ================================================================ -->
  <!-- Studs -->
  <circle cx="395" cy="535" r="9" fill="#A93226" stroke="#922B21" stroke-width="2"/>
  <circle cx="435" cy="535" r="9" fill="#A93226" stroke="#922B21" stroke-width="2"/>
  <circle cx="475" cy="535" r="9" fill="#A93226" stroke="#922B21" stroke-width="2"/>
  <circle cx="515" cy="535" r="9" fill="#A93226" stroke="#922B21" stroke-width="2"/>
  <circle cx="555" cy="535" r="9" fill="#A93226" stroke="#922B21" stroke-width="2"/>
  <circle cx="595" cy="535" r="9" fill="#A93226" stroke="#922B21" stroke-width="2"/>
  <circle cx="635" cy="535" r="9" fill="#A93226" stroke="#922B21" stroke-width="2"/>
  <circle cx="675" cy="535" r="9" fill="#A93226" stroke="#922B21" stroke-width="2"/>
  <circle cx="715" cy="535" r="9" fill="#A93226" stroke="#922B21" stroke-width="2"/>
  <circle cx="755" cy="535" r="9" fill="#A93226" stroke="#922B21" stroke-width="2"/>
  <!-- Brick body -->
  <rect x="360" y="543" width="450" height="120" rx="8" fill="#E74C3C" filter="url(#shadow)"/>
  <rect x="362" y="543" width="446" height="15" rx="6" fill="#F1948A" opacity="0.45"/>
  <text x="585" y="576" font-size="14" font-weight="900" text-anchor="middle" fill="white">MCP Server + DuckDB</text>
  <text x="585" y="594" font-size="10.5" text-anchor="middle" fill="#FDEDEC">SQL analytics · H3-indexed spatial queries</text>

  <!-- Sub-brick: Spatial SQL -->
  <rect x="375" y="605" width="195" height="45" rx="6" fill="#CB4335" filter="url(#shadow-sm)"/>
  <text x="472" y="624" font-size="11" font-weight="700" text-anchor="middle" fill="white">Spatial SQL</text>
  <text x="472" y="641" font-size="9.5" text-anchor="middle" fill="#FDEDEC">H3 hex aggregation · ST_ functions</text>

  <!-- Sub-brick: DuckDB Engine -->
  <rect x="590" y="605" width="205" height="45" rx="6" fill="#CB4335" filter="url(#shadow-sm)"/>
  <text x="692" y="624" font-size="11" font-weight="700" text-anchor="middle" fill="white">DuckDB Engine</text>
  <text x="692" y="641" font-size="9.5" text-anchor="middle" fill="#FDEDEC">in-process · httpfs extension</text>

  <!-- Arrow: MCP Client → DuckDB -->
  <path d="M 465 493 L 465 520 L 545 520 L 545 533" stroke="#444" stroke-width="2" fill="none" marker-end="url(#arr)"/>
  <text x="530" y="515" font-size="9" fill="#444" font-weight="600">MCP protocol</text>

  <!-- ================================================================
       S3 FOUNDATION BRICK  (x=20, y=715, w=960, h=75)  slate/gray
       Studs cy=705 — THE FOUNDATION
       ================================================================ -->
  <!-- Studs (many, full width) -->
  <circle cx="55"  cy="705" r="10" fill="#566573" stroke="#4D5D6A" stroke-width="2"/>
  <circle cx="100" cy="705" r="10" fill="#566573" stroke="#4D5D6A" stroke-width="2"/>
  <circle cx="145" cy="705" r="10" fill="#566573" stroke="#4D5D6A" stroke-width="2"/>
  <circle cx="190" cy="705" r="10" fill="#566573" stroke="#4D5D6A" stroke-width="2"/>
  <circle cx="235" cy="705" r="10" fill="#566573" stroke="#4D5D6A" stroke-width="2"/>
  <circle cx="280" cy="705" r="10" fill="#566573" stroke="#4D5D6A" stroke-width="2"/>
  <circle cx="325" cy="705" r="10" fill="#566573" stroke="#4D5D6A" stroke-width="2"/>
  <circle cx="370" cy="705" r="10" fill="#566573" stroke="#4D5D6A" stroke-width="2"/>
  <circle cx="415" cy="705" r="10" fill="#566573" stroke="#4D5D6A" stroke-width="2"/>
  <circle cx="460" cy="705" r="10" fill="#566573" stroke="#4D5D6A" stroke-width="2"/>
  <circle cx="505" cy="705" r="10" fill="#566573" stroke="#4D5D6A" stroke-width="2"/>
  <circle cx="550" cy="705" r="10" fill="#566573" stroke="#4D5D6A" stroke-width="2"/>
  <circle cx="595" cy="705" r="10" fill="#566573" stroke="#4D5D6A" stroke-width="2"/>
  <circle cx="640" cy="705" r="10" fill="#566573" stroke="#4D5D6A" stroke-width="2"/>
  <circle cx="685" cy="705" r="10" fill="#566573" stroke="#4D5D6A" stroke-width="2"/>
  <circle cx="730" cy="705" r="10" fill="#566573" stroke="#4D5D6A" stroke-width="2"/>
  <circle cx="775" cy="705" r="10" fill="#566573" stroke="#4D5D6A" stroke-width="2"/>
  <circle cx="820" cy="705" r="10" fill="#566573" stroke="#4D5D6A" stroke-width="2"/>
  <circle cx="865" cy="705" r="10" fill="#566573" stroke="#4D5D6A" stroke-width="2"/>
  <circle cx="910" cy="705" r="10" fill="#566573" stroke="#4D5D6A" stroke-width="2"/>
  <circle cx="955" cy="705" r="10" fill="#566573" stroke="#4D5D6A" stroke-width="2"/>
  <!-- Brick body -->
  <rect x="20" y="715" width="960" height="75" rx="8" fill="#717D7E" filter="url(#shadow)"/>
  <!-- Top sheen -->
  <rect x="22" y="715" width="956" height="14" rx="6" fill="#99A3A4" opacity="0.45"/>
  <!-- Foundation label -->
  <text x="500" y="748" font-size="15" font-weight="900" text-anchor="middle" fill="white" letter-spacing="1">S3 / Cloud Object Storage  —  The Data Foundation</text>
  <!-- Storage type sub-labels -->
  <rect x="45" y="758" width="210" height="24" rx="5" fill="#636E72" opacity="0.85"/>
  <text x="150" y="775" font-size="11" font-weight="700" text-anchor="middle" fill="white">GeoParquet  (H3-indexed)</text>

  <rect x="275" y="758" width="200" height="24" rx="5" fill="#636E72" opacity="0.85"/>
  <text x="375" y="775" font-size="11" font-weight="700" text-anchor="middle" fill="white">PMTiles  (vector tiles)</text>

  <rect x="495" y="758" width="230" height="24" rx="5" fill="#636E72" opacity="0.85"/>
  <text x="610" y="775" font-size="11" font-weight="700" text-anchor="middle" fill="white">COG  (Cloud-Optimized GeoTIFF)</text>

  <rect x="745" y="758" width="220" height="24" rx="5" fill="#636E72" opacity="0.85"/>
  <text x="855" y="775" font-size="11" font-weight="700" text-anchor="middle" fill="white">TiTiler  (raster tile server)</text>

  <!-- ================================================================
       ARROWS leading down to S3
       ================================================================ -->
  <!-- STAC → S3 (asset links, dashed) -->
  <path d="M 155 493 L 155 703" stroke="#888" stroke-width="1.8" stroke-dasharray="5,3" fill="none" marker-end="url(#arr-dk)"/>
  <text x="92" y="610" font-size="9" fill="#888" font-weight="600">asset</text>
  <text x="92" y="622" font-size="9" fill="#888" font-weight="600">URLs</text>

  <!-- MapLibre → S3 (tile requests, dashed, leftmost channel) -->
  <path d="M 50 320 L 50 703" stroke="#D4890A" stroke-width="1.8" stroke-dasharray="5,3" fill="none" marker-end="url(#arr-dk)"/>
  <text x="14" y="500" font-size="8.5" fill="#D4890A" font-weight="600" transform="rotate(-90 14 500)">tile requests</text>

  <!-- DuckDB → S3 (reads parquet) -->
  <line x1="585" y1="663" x2="585" y2="703" stroke="#444" stroke-width="2" marker-end="url(#arr)"/>
  <text x="635" y="690" font-size="9" fill="#444" font-weight="600">reads GeoParquet</text>

</svg>
